# xmcd
#
# Track frame offsets:
# 150
# 9627
# 25761
# 44058
# 60541
# 75299
# 88361
# 104472
# 117490
# 135288
# 153986
# 174778
# 192224
# 215367
# 244445
# 260973
#
# Disc length: 3718 seconds
#
#
# Revision: 0
# Processed by: cddbd v1.5PL3 Copyright (c) Steve Scherf et al.
# Submitted via: FreeRIP 2.51 
#
DISCID=d90e8410
DTITLE=Rocio Durcal - En concierto inolvidable
DYEAR=1900
DGENRE=
TTITLE0=Obertura
TTITLE1=Como han pasado los anos
TTITLE2=Jamas te prometi un jardin de rosas
TTITLE3=Luz de Luna
TTITLE4=Si nos dejan
TTITLE5=De que manera te olvido
TTITLE6=Me gustas mucho
TTITLE7=Desaires
TTITLE8=Infiel
TTITLE9=Como tu mujer
TTITLE10=Por que te quiero
TTITLE11=Sombras nada mas
TTITLE12=Costumbres
TTITLE13=Amor eterno
TTITLE14=Eres unico
TTITLE15=Hasta que vuelvas
EXTD=
EXTT0=
EXTT1=
EXTT2=
EXTT3=
EXTT4=
EXTT5=
EXTT6=
EXTT7=
EXTT8=
EXTT9=
EXTT10=
EXTT11=
EXTT12=
EXTT13=
EXTT14=
EXTT15=
PLAYORDER=
